<svg width="80" height="80" viewBox="0 0 80 80" fill="none" xmlns="http://www.w3.org/2000/svg">
<path fill-rule="evenodd" clip-rule="evenodd" d="M19.6877 7.81262H60.3126V59.6873H19.6877V7.81262Z" fill="#333435"/>
<path d="M72.8123 6.24998H68.1248V1.56249C68.1248 0.699685 67.4252 0 66.5623 0H13.4377C9.12992 0 5.62524 3.50467 5.62524 7.81247V72.1875C5.62524 76.4953 9.12992 80 13.4377 80H72.8123C73.6751 80 74.3748 79.3003 74.3748 78.4375V7.81247C74.3748 6.94966 73.6753 6.24998 72.8123 6.24998ZM64.9999 64.3751H15.0002V3.12499H64.9999V64.3751ZM8.75023 7.81247C8.75023 5.77545 10.0565 4.03764 11.8752 3.3928V64.5322C10.7213 64.7674 9.65913 65.2577 8.75023 65.9413V7.81247ZM13.4377 76.875C7.22618 76.6386 7.23086 67.7343 13.4377 67.5001H64.9999V70.625H13.4377C11.3668 70.7019 11.3683 73.6738 13.4377 73.75H64.9999V76.875H13.4377ZM71.2498 76.875H68.1248V9.37496H71.2498V76.875Z" fill="#333435"/>
<circle cx="40" cy="34" r="10.5" stroke="white" stroke-width="3"/>
</svg>
