<svg width="80" height="80" viewBox="0 0 80 80" fill="none" xmlns="http://www.w3.org/2000/svg">
<path d="M60.6731 28.3244V20.7569C54.7292 12.6083 45.1075 7.31396 34.2483 7.31396C31.6733 7.31396 29.1658 7.61162 26.7617 8.17506C25.9617 10.558 25.6642 12.713 25.6494 12.7319C22.7219 16.584 24.2439 22.4782 28.9734 21.4666C30.0491 21.2366 37.5663 19.619 42.7542 25.1319C45.9413 28.5188 49.9947 30.9426 54.4308 32.2618L60.6731 28.3244Z" fill="#333435"/>
<path d="M38.0034 61.6079C38.4895 62.8209 39.8359 63.4463 41.0758 63.0331C41.6344 62.8466 42.1087 62.4667 42.4122 61.961C42.4122 61.961 47.067 55.2038 47.067 54.549V51.3135C47.067 50.7531 47.2575 50.2088 47.6081 49.7713L49.4015 47.5293C50.3348 46.3621 50.0254 44.6393 48.7436 43.8707L33.3059 33.3777C30.4667 32.3832 27.71 33.1632 25.6384 34.2157C23.8208 35.1392 23.464 37.582 24.9481 38.9801C31.5476 45.1977 26.4837 49.6123 28.8659 50.4595C30.7128 51.1163 34.0458 49.4712 34.6534 51.3348L38.0034 61.6079Z" fill="#333435"/>
<path d="M16.9323 49.2784L16.888 49.6582C16.6791 51.4481 15.9466 53.1367 14.7794 54.5085C13.8359 55.6187 13.1711 56.9421 12.8439 58.3626L11.6366 63.6012C5.42719 57.6515 1.5625 49.2784 1.5625 40C1.5625 38.4085 1.67641 36.8425 1.89594 35.3121C3.98344 35.1179 6.06453 35.9792 7.39844 37.6656L9.64625 40.5065C10.4145 41.4775 11.4552 42.1993 12.6328 42.5814C15.4781 43.5037 17.2786 46.3067 16.9323 49.2784Z" fill="#333435"/>
<path d="M79.2711 32.8698L70.6995 27.4628V20.3812C70.6995 17.1861 68.1002 14.5867 64.9052 14.5867C62.8127 14.5867 60.9756 15.7017 59.9569 17.3687C53.4464 9.9609 44.1869 5.75183 34.2483 5.75183C31.5983 5.75183 28.9594 6.05527 26.4053 6.65402C19.7205 8.2198 13.7153 11.7339 9.03938 16.8162C4.33766 21.9265 1.33266 28.2454 0.349219 35.0903C0.1175 36.7064 0 38.3581 0 40C0 44.752 0.955 49.3523 2.83859 53.6732C4.65781 57.8464 7.25422 61.5664 10.5553 64.7295C16.9584 70.8678 25.3727 74.2482 34.2481 74.2482C45.8742 74.2482 56.5848 68.4417 62.9425 58.7045H71.9583C72.8213 58.7045 73.5208 58.0048 73.5208 57.142V53.4584C73.5208 53.0201 73.3367 52.6022 73.0136 52.3062L70.6994 50.1867V39.4614L78.0489 41.3478C78.5164 41.4675 79.0134 41.3648 79.395 41.0689C79.7766 40.7728 79.9998 40.3172 79.9998 39.8343V34.1917C80 33.6551 79.7248 33.1561 79.2711 32.8698ZM34.2483 71.1231C26.1827 71.1231 18.5364 68.0514 12.7178 62.4732C6.53172 56.5461 3.125 48.5647 3.125 40C3.125 38.5061 3.23188 37.0036 3.44266 35.5343C5.24703 22.9743 14.7616 12.5911 27.1183 9.69668C29.4392 9.15277 31.838 8.87683 34.2483 8.87683C43.897 8.87683 52.8419 13.2425 58.7844 20.8484C58.8116 20.8839 58.9647 21.0864 59.1106 21.2795V27.4628L50.5391 32.8698C50.0855 33.1561 49.8102 33.655 49.8102 34.1914V39.834C49.8102 40.317 50.0334 40.7726 50.415 41.0686C50.7964 41.3647 51.2934 41.4672 51.7611 41.3475L59.1106 39.4611V50.1864L56.7964 52.3059C56.4733 52.6018 56.2892 53.0198 56.2892 53.4581V57.1417C56.2892 58.0045 56.9888 58.7042 57.8517 58.7042H59.1284C53.2566 66.5207 44.1148 71.1231 34.2483 71.1231ZM76.875 37.82L69.5255 35.9336C69.0578 35.814 68.5609 35.9165 68.1794 36.2125C67.7978 36.5086 67.5745 36.9642 67.5745 37.447V50.8742C67.5745 51.3125 67.7586 51.7304 68.0817 52.0264L70.3959 54.1459V55.5793H59.4144V54.1459L61.7286 52.0264C62.0517 51.7304 62.2358 51.3125 62.2358 50.8742V37.447C62.2358 36.964 62.0125 36.5084 61.6309 36.2125C61.2494 35.9165 60.7527 35.8139 60.2847 35.9336L52.9353 37.82V35.0532L61.5069 29.6462C61.9605 29.36 62.2358 28.8611 62.2358 28.3246V20.3812C62.2358 18.9092 63.4333 17.7117 64.9053 17.7117C66.3772 17.7117 67.5747 18.9092 67.5747 20.3812V28.3246C67.5747 28.8611 67.8498 29.36 68.3036 29.6462L76.875 35.0532V37.82Z" fill="#333435"/>
</svg>
