<svg width="80" height="80" viewBox="0 0 80 80" fill="none" xmlns="http://www.w3.org/2000/svg">
<g clip-path="url(#clip0)">
<path fill-rule="evenodd" clip-rule="evenodd" d="M7.04419 39.9688H18.5514V51.0478H7.04419V39.9688Z" fill="#333435"/>
<path fill-rule="evenodd" clip-rule="evenodd" d="M18.5513 39.9688H40V51.0478H18.5513V39.9688Z" fill="#333435"/>
<path fill-rule="evenodd" clip-rule="evenodd" d="M40 39.9688H61.4488V51.0478H40V39.9688Z" fill="#333435"/>
<path fill-rule="evenodd" clip-rule="evenodd" d="M61.4487 39.9688H72.9559V51.0478H61.4487V39.9688Z" fill="#333435"/>
<path fill-rule="evenodd" clip-rule="evenodd" d="M7.04419 62.1223H18.5514V72.1622H7.04419V62.1223Z" fill="#333435"/>
<path fill-rule="evenodd" clip-rule="evenodd" d="M18.5513 78.4375H40V62.1223H18.5513V72.162V78.4375Z" fill="#333435"/>
<path fill-rule="evenodd" clip-rule="evenodd" d="M40 78.4375H61.4488V72.162V62.1223H40V78.4375Z" fill="#333435"/>
<path fill-rule="evenodd" clip-rule="evenodd" d="M61.4487 62.1223H72.9559V72.1622H61.4487V62.1223Z" fill="#333435"/>
<path d="M60.2371 8.72156L51.5611 2.12094C51.1533 1.81016 50.7074 1.54797 50.2414 1.33469C48.1966 0.399219 45.1336 0 40 0C34.8646 0 31.8011 0.399219 29.7566 1.33469C29.2905 1.54797 28.8422 1.81031 28.4341 2.12109L19.7627 8.72156C11.8394 9.00766 5.48145 15.5414 5.48145 23.5331V72.162C5.48145 73.025 6.18098 73.7245 7.04395 73.7245H16.9886V78.4375C16.9886 79.3005 17.6882 80 18.5511 80H61.4488C62.3118 80 63.0113 79.3005 63.0113 78.4375V73.7245H72.956C73.8189 73.7245 74.5185 73.025 74.5185 72.162V23.5331C74.5185 15.5413 68.1605 9.0075 60.2371 8.72156ZM41.5625 19.8653C44.4536 19.4283 47.2933 17.7939 49.6954 15.1536C51.8569 12.7777 53.3282 9.89859 53.5961 7.59547L57.9283 10.8914C56.66 15.2486 53.2338 19.402 50.2264 21.7089C47.5241 23.7812 44.5574 25.0178 41.5627 25.3395V19.8653H41.5625ZM49.6583 4.59891C49.6621 4.60188 49.6654 4.60516 49.6691 4.60797L49.6911 4.62469C50.5149 5.28062 50.5157 6.07875 50.5157 6.86562C50.5157 9.76375 45.9644 16.8594 40 16.8594C34.0357 16.8594 29.4844 9.76375 29.4844 6.86562C29.4844 5.02656 29.4844 3.125 40 3.125C45.9572 3.125 48.5389 3.73531 49.6583 4.59891ZM26.4038 7.59391C26.6711 9.8975 28.1419 12.7775 30.303 15.1536C32.7047 17.7942 35.545 19.4286 38.4377 19.8656V25.34C35.4405 25.0184 32.4721 23.7819 29.7696 21.7094C26.7611 19.4017 23.3355 15.2477 22.0711 10.8922L26.4038 7.59391ZM8.6066 70.5995V25.2617C12.8902 26.1569 16.9888 30.7708 16.9888 39.7458V70.5995H8.6066ZM20.1138 39.7458C20.1138 28.5984 14.4694 22.9928 8.6977 22.0994C9.35926 16.7139 13.6922 12.4478 19.1104 11.8961C20.6871 17.1955 24.7116 21.768 27.8677 24.1887C31.1296 26.6902 34.7546 28.158 38.4375 28.483V76.875H20.1138V39.7458ZM59.8863 76.875H41.5625V28.4828C45.243 28.1577 48.8664 26.69 52.1282 24.1886C55.283 21.7688 59.3082 17.1964 60.8888 11.8959C66.3075 12.4473 70.6408 16.7136 71.3024 22.0994C65.5307 22.9928 59.8863 28.5984 59.8863 39.7458V76.875ZM63.0113 39.7458C63.0113 30.7708 67.1099 26.1569 71.3935 25.2617V70.5997H63.0113V39.7458Z" fill="#333435"/>
</g>
<defs>
<clipPath id="clip0">
<rect width="80" height="80" fill="white"/>
</clipPath>
</defs>
</svg>
