<svg width="80" height="80" viewBox="0 0 80 80" fill="none" xmlns="http://www.w3.org/2000/svg">
<path d="M29.823 46.2754H36.8685V53.3354H29.823V46.2754Z" fill="#333435"/>
<path d="M43.1311 46.2754H50.1766V53.3354H43.1311V46.2754Z" fill="#333435"/>
<path d="M29.823 32.9399H36.8685V39.9999H29.823V32.9399Z" fill="#333435"/>
<path d="M43.1311 32.9399H50.1766V39.9999H43.1311V32.9399Z" fill="#333435"/>
<path d="M29.823 17.2512H50.1766V26.6645H29.823V17.2512Z" fill="#333435"/>
<path d="M58.0146 0H21.9852C18.539 0 15.7352 2.80375 15.7352 6.25V73.75C15.7352 77.1963 18.539 80 21.9852 80H58.0146C61.4608 80 64.2646 77.1963 64.2646 73.75V6.25C64.2646 2.80375 61.4608 0 58.0146 0ZM61.1396 73.75C61.1396 75.4731 59.7377 76.875 58.0146 76.875H21.9852C20.2621 76.875 18.8602 75.4731 18.8602 73.75V6.25C18.8602 4.52688 20.2621 3.125 21.9852 3.125H58.0146C59.7377 3.125 61.1396 4.52688 61.1396 6.25V73.75Z" fill="#333435"/>
<path d="M56.4395 6.27539H47.0454C46.1826 6.27539 45.4829 6.97492 45.4829 7.83789C45.4829 8.70648 44.7792 9.4132 43.9142 9.4132H36.0857C35.2207 9.4132 34.517 8.70648 34.517 7.83789C34.517 6.97492 33.8173 6.27539 32.9545 6.27539H23.5604C22.6976 6.27539 21.9979 6.97492 21.9979 7.83789V59.6109C21.9979 60.4738 22.6976 61.1734 23.5604 61.1734H56.4395C57.3024 61.1734 58.002 60.4738 58.002 59.6109V7.83789C58.002 6.97492 57.3023 6.27539 56.4395 6.27539ZM54.877 58.0484H25.1229V9.40039H31.6585C32.3031 11.2265 34.0443 12.5382 36.0857 12.5382H43.9142C45.9556 12.5382 47.6968 11.2263 48.3414 9.40039H54.877V58.0484Z" fill="#333435"/>
<path d="M39.9998 64.324C37.4117 64.324 35.3059 66.4326 35.3059 69.0243C35.3059 71.616 37.4117 73.7246 39.9998 73.7246C42.5879 73.7246 44.6937 71.616 44.6937 69.0243C44.6937 66.4326 42.5881 64.324 39.9998 64.324ZM39.9998 70.5996C39.1347 70.5996 38.4309 69.8929 38.4309 69.0243C38.4309 68.1557 39.1347 67.449 39.9998 67.449C40.865 67.449 41.5687 68.1555 41.5687 69.0243C41.5687 69.8929 40.865 70.5996 39.9998 70.5996Z" fill="#333435"/>
</svg>
