<svg width="80" height="80" viewBox="0 0 80 80" fill="none" xmlns="http://www.w3.org/2000/svg">
<path fill-rule="evenodd" clip-rule="evenodd" d="M26.8067 36.6893L33.4059 42.2168L40.0008 36.6893L46.5956 42.2168L53.1905 36.6893L59.7897 42.2168L66.3048 36.7557C66.0922 33.8502 65.4589 31.0777 64.4181 28.4912L59.7898 32.371L53.1906 26.8435L46.5958 32.371L40.0009 26.8435L33.4061 32.371L26.8069 26.8435L20.212 32.371L15.5837 28.4912C14.543 31.0777 13.9051 33.8504 13.697 36.7557L20.2122 42.2168L26.8067 36.6893Z" fill="#333435"/>
<path d="M78.8809 23.6086C76.7894 18.4566 72.0701 15.5017 65.9331 15.5017H55.9654C54.8448 14.6944 53.6539 13.9464 52.3954 13.263C52.6733 9.47359 54.6467 5.76297 58.0229 2.72375C58.5037 2.29094 58.6681 1.60656 58.4364 1.00266C58.2045 0.398594 57.6245 0 56.9775 0H23.0244C22.3773 0 21.7973 0.398594 21.5656 1.00266C21.3339 1.60656 21.4981 2.29094 21.979 2.72375C25.3525 5.76062 27.3244 9.47156 27.6019 13.2631C26.3437 13.9466 25.1531 14.6945 24.0326 15.5017H14.0689C7.92998 15.5017 3.20967 18.4578 1.11826 23.612C-0.0195529 26.4163 -0.298772 29.7273 0.332166 32.9352C0.967947 36.1677 2.48842 39.0848 4.61342 41.1494L13.8561 50.1298C14.0297 50.6786 14.2147 51.2288 14.4131 51.7808C16.7058 58.1578 20.5606 64.4283 25.8753 70.4311L23.1301 77.8983C22.9539 78.3777 23.0229 78.9128 23.3153 79.3316C23.6076 79.7503 24.0861 79.9998 24.5967 79.9998H55.4008C55.9114 79.9998 56.3897 79.7505 56.6819 79.3319C56.9742 78.9133 57.0434 78.3781 56.8675 77.8989L54.1261 70.4313C59.4404 64.4277 63.295 58.1567 65.5873 51.7791C65.7851 51.2287 65.9697 50.68 66.1428 50.133L75.3887 41.1491C77.5131 39.0839 79.0329 36.1661 79.6684 32.9331C80.2989 29.7244 80.0192 26.4128 78.8809 23.6086ZM26.6497 3.125H53.3515C51.0358 6.01641 49.6472 9.27609 49.3158 12.6272H30.6817C30.3509 9.27484 28.9636 6.01547 26.6497 3.125ZM29.5815 15.7522H50.4159C58.0889 19.7441 62.9125 26.02 64.3714 33.9258C66.3467 44.6309 61.7098 57.21 51.6394 68.5261H28.3623C18.2914 57.2119 13.6536 44.6338 15.6278 33.9283C16.7972 27.5869 20.1317 22.2942 25.3636 18.3869C25.4317 18.3441 25.4962 18.2966 25.5567 18.2442C26.7951 17.3356 28.1378 16.5036 29.5815 15.7522ZM6.79107 38.9081C3.31248 35.5286 2.11857 29.4578 4.01388 24.787C5.62576 20.8145 9.1967 18.6267 14.0689 18.6267H20.3429C16.2884 22.6606 13.6008 27.6884 12.5547 33.3617C11.8973 36.9259 11.8795 40.6355 12.495 44.4503L6.79107 38.9081ZM26.8359 76.875L28.7564 71.6512H51.245L53.1626 76.875H26.8359ZM73.2106 38.9081L67.5042 44.4528C68.1201 40.6359 68.1023 36.9245 67.4444 33.3589C66.3978 27.6867 63.7101 22.6598 59.6558 18.6267H65.933C70.8034 18.6267 74.3734 20.8134 75.9853 24.7839C77.8815 29.455 76.6884 35.5272 73.2106 38.9081Z" fill="#333435"/>
<path d="M26.8068 48.8794C25.944 48.8794 25.2443 48.182 25.2443 47.3191V47.3147C25.2443 46.4517 25.944 45.7522 26.8068 45.7522C27.6696 45.7522 28.3693 46.4517 28.3693 47.3147C28.3693 48.1777 27.6697 48.8794 26.8068 48.8794Z" fill="#333435"/>
<path d="M40.001 48.8794C39.1382 48.8794 38.4385 48.182 38.4385 47.3191V47.3147C38.4385 46.4517 39.1382 45.7522 40.001 45.7522C40.8638 45.7522 41.5635 46.4517 41.5635 47.3147C41.5635 48.1777 40.8638 48.8794 40.001 48.8794Z" fill="#333435"/>
<path d="M53.1907 48.8794C52.3279 48.8794 51.6282 48.182 51.6282 47.3191V47.3147C51.6282 46.4517 52.3279 45.7522 53.1907 45.7522C54.0535 45.7522 54.7532 46.4517 54.7532 47.3147C54.7532 48.1777 54.0535 48.8794 53.1907 48.8794Z" fill="#333435"/>
</svg>
